<svg width="996.601" height="145.8" viewBox="0 0 996.601 145.8" xmlns="http://www.w3.org/2000/svg">
	<g id="svgGroup" stroke-linecap="round" fill-rule="evenodd" font-size="9pt" stroke="#000" stroke-width="0.25mm" fill="none" style="stroke:#000;stroke-width:0.25mm;fill:none">
		<path d="M 79.801 12.75 L 74.551 24.6 Q 68.251 21.15 61.726 18.9 A 41.041 41.041 0 0 0 52.577 16.919 A 51.337 51.337 0 0 0 47.251 16.65 A 30.194 30.194 0 0 0 36.021 18.706 A 28.378 28.378 0 0 0 30.451 21.675 A 30.443 30.443 0 0 0 22.465 29.802 A 41.186 41.186 0 0 0 18.826 36.45 A 47.421 47.421 0 0 0 15.757 46.546 Q 14.551 52.809 14.551 60.3 A 68.268 68.268 0 0 0 15.195 69.931 Q 15.929 75.083 17.504 79.445 A 39.054 39.054 0 0 0 18.451 81.825 A 36.27 36.27 0 0 0 22.849 89.395 A 28.654 28.654 0 0 0 29.251 95.55 Q 36.151 100.35 45.151 100.35 Q 53.551 100.35 60.076 96.825 Q 65.072 94.126 68.441 91.295 A 29.907 29.907 0 0 0 70.351 89.55 L 70.351 66.6 L 48.601 66.6 L 48.601 55.35 L 83.851 55.35 L 83.851 111 L 71.251 111 L 71.251 100.5 A 53.824 53.824 0 0 1 64.684 105.437 A 71.031 71.031 0 0 1 58.501 108.975 A 35.391 35.391 0 0 1 44.392 112.724 A 42.196 42.196 0 0 1 41.851 112.8 A 39.857 39.857 0 0 1 27.882 110.4 A 36.766 36.766 0 0 1 20.251 106.5 A 40.332 40.332 0 0 1 8.354 94.055 A 50.926 50.926 0 0 1 5.401 88.575 A 56.294 56.294 0 0 1 1.039 74.219 A 77.756 77.756 0 0 1 0.001 61.2 Q 0.001 44.4 5.701 31.575 A 49.095 49.095 0 0 1 14.377 18.153 A 44.183 44.183 0 0 1 22.126 11.475 A 41.75 41.75 0 0 1 39.18 4.875 A 55.595 55.595 0 0 1 48.001 4.2 A 67.888 67.888 0 0 1 56.953 4.763 A 50.413 50.413 0 0 1 65.401 6.6 Q 73.051 9 79.801 12.75 Z" id="0" vector-effect="non-scaling-stroke"/>
		<path d="M 119.101 111 L 105.601 111 L 105.601 33 L 119.101 33 L 119.101 111 Z M 105.807 16.932 A 8.959 8.959 0 0 0 112.351 19.65 Q 116.701 19.65 119.251 17.025 A 8.665 8.665 0 0 0 121.388 13.325 A 11.266 11.266 0 0 0 121.801 10.2 A 10.887 10.887 0 0 0 121.8 10.078 A 9.091 9.091 0 0 0 119.026 3.525 Q 116.251 0.75 112.351 0.75 A 12.396 12.396 0 0 0 109.867 0.987 A 8.492 8.492 0 0 0 105.451 3.3 Q 102.901 5.85 102.901 10.2 A 8.987 8.987 0 0 0 103.639 13.828 A 9.965 9.965 0 0 0 105.676 16.8 A 11.203 11.203 0 0 0 105.807 16.932 Z" id="1" vector-effect="non-scaling-stroke"/>
		<path d="M 142.351 86.55 L 142.351 0 L 155.851 0 L 155.851 85.2 A 30.966 30.966 0 0 0 156.133 89.532 Q 156.436 91.674 157.066 93.409 A 11.96 11.96 0 0 0 159.226 97.2 A 11.045 11.045 0 0 0 166.101 100.913 A 16.086 16.086 0 0 0 168.601 101.1 Q 171.451 101.1 174.226 100.425 Q 177.001 99.75 178.951 98.85 L 182.251 109.8 A 27.226 27.226 0 0 1 179.847 110.725 Q 177.936 111.366 175.576 111.9 A 35.725 35.725 0 0 1 170.843 112.628 A 45.77 45.77 0 0 1 166.801 112.8 Q 159.901 112.8 154.351 110.175 A 19.024 19.024 0 0 1 146.364 103.027 A 23.784 23.784 0 0 1 145.576 101.7 Q 142.351 95.85 142.351 86.55 Z" id="2" vector-effect="non-scaling-stroke"/>
		<path d="M 207.601 104.55 L 207.601 111 L 195.001 111 L 195.001 0 L 208.501 0 L 208.501 41.1 A 23.266 23.266 0 0 1 211.332 38.387 Q 212.856 37.139 214.763 35.922 A 49.971 49.971 0 0 1 217.276 34.425 A 24.875 24.875 0 0 1 225.122 31.692 A 33.636 33.636 0 0 1 231.001 31.2 Q 240.001 31.2 247.876 35.925 A 33.494 33.494 0 0 1 258.643 46.376 A 41.197 41.197 0 0 1 260.551 49.575 Q 265.14 58.108 265.342 70.137 A 66.412 66.412 0 0 1 265.351 71.25 A 49.973 49.973 0 0 1 264.321 81.582 A 41.625 41.625 0 0 1 262.351 88.2 A 44.05 44.05 0 0 1 257.609 97.207 A 38.224 38.224 0 0 1 254.326 101.325 Q 249.301 106.8 243.001 109.8 Q 236.701 112.8 230.101 112.8 Q 223.351 112.8 217.426 110.325 Q 211.501 107.85 207.601 104.55 Z M 208.501 53.1 L 208.501 94.8 A 26.985 26.985 0 0 0 213.946 98.078 A 32.703 32.703 0 0 0 216.601 99.15 A 29.193 29.193 0 0 0 225.847 100.794 A 33.059 33.059 0 0 0 226.501 100.8 A 25.485 25.485 0 0 0 234.024 99.723 A 22.12 22.12 0 0 0 239.476 97.2 A 23.927 23.927 0 0 0 247.203 89.085 A 29.471 29.471 0 0 0 248.326 87 A 31.302 31.302 0 0 0 251.097 77.93 A 41.217 41.217 0 0 0 251.551 71.7 A 42.071 42.071 0 0 0 250.955 64.436 Q 250.165 59.929 248.326 56.25 Q 245.101 49.8 239.776 46.35 Q 234.451 42.9 228.001 42.9 A 22.112 22.112 0 0 0 219.561 44.494 A 21.081 21.081 0 0 0 216.376 46.125 Q 211.969 48.871 209.357 51.998 A 19.41 19.41 0 0 0 208.501 53.1 Z" id="3" vector-effect="non-scaling-stroke"/>
		<path d="M 347.251 77.55 L 292.651 77.55 A 36.132 36.132 0 0 0 294.359 85.087 Q 296.363 90.806 300.301 94.65 Q 306.601 100.8 316.951 100.8 A 55.094 55.094 0 0 0 323.363 100.444 A 41.363 41.363 0 0 0 329.101 99.375 Q 334.501 97.95 339.451 95.7 L 342.601 107.25 A 61.155 61.155 0 0 1 336.099 109.689 A 77.795 77.795 0 0 1 330.451 111.225 A 58.371 58.371 0 0 1 322.813 112.454 A 78.038 78.038 0 0 1 315.301 112.8 A 42.477 42.477 0 0 1 303.682 111.292 A 31.662 31.662 0 0 1 288.676 102.075 A 35.282 35.282 0 0 1 280.868 87.765 Q 279.355 82.517 278.977 76.273 A 70.687 70.687 0 0 1 278.851 72 A 53.038 53.038 0 0 1 280.1 60.267 A 43.26 43.26 0 0 1 283.276 51.075 A 36.963 36.963 0 0 1 290.8 40.452 A 34.331 34.331 0 0 1 295.651 36.525 Q 303.601 31.2 314.101 31.2 A 42.83 42.83 0 0 1 322.306 31.944 Q 327.322 32.923 331.327 35.191 A 25.82 25.82 0 0 1 332.776 36.075 Q 340.201 40.95 343.951 49.2 A 42.278 42.278 0 0 1 347.59 63.996 A 50.152 50.152 0 0 1 347.701 67.35 A 112.805 112.805 0 0 1 347.265 77.395 A 103.961 103.961 0 0 1 347.251 77.55 Z M 292.501 66.6 L 335.251 66.6 A 36.533 36.533 0 0 0 334.644 59.722 Q 333.901 55.846 332.244 52.81 A 18.633 18.633 0 0 0 329.551 49.05 Q 323.851 42.9 313.801 42.9 A 20.37 20.37 0 0 0 306.133 44.302 A 18.786 18.786 0 0 0 299.401 48.975 Q 293.701 55.05 292.501 66.6 Z" id="4" vector-effect="non-scaling-stroke"/>
		<path d="M 379.201 111 L 365.701 111 L 365.701 33 L 378.751 33 L 378.751 49.95 Q 380.701 45 384.001 40.725 Q 387.301 36.45 392.251 33.825 Q 397.201 31.2 403.801 31.2 Q 406.051 31.2 408.301 31.425 Q 410.551 31.65 412.051 32.1 L 408.001 46.05 Q 405.28 44.904 401.603 44.852 A 24.891 24.891 0 0 0 401.251 44.85 A 19.437 19.437 0 0 0 391.306 47.619 A 23.413 23.413 0 0 0 390.676 48 Q 385.684 51.129 382.468 57.663 A 34.3 34.3 0 0 0 382.426 57.75 Q 379.201 64.35 379.201 74.55 L 379.201 111 Z" id="5" vector-effect="non-scaling-stroke"/>
		<path d="M 431.551 84.15 L 431.551 47.55 L 418.051 47.55 L 418.051 35.85 L 431.851 35.85 L 434.701 11.25 L 445.051 11.25 L 445.051 35.85 L 466.651 35.85 L 466.651 47.55 L 445.051 47.55 L 445.051 85.2 Q 445.051 93.9 448.726 97.35 Q 452.401 100.8 457.501 100.8 Q 461.251 100.8 464.626 99.6 A 38.599 38.599 0 0 0 469.393 97.547 A 34.151 34.151 0 0 0 470.851 96.75 L 474.601 107.55 Q 472.562 108.773 469.553 109.962 A 65.048 65.048 0 0 1 466.501 111.075 Q 461.401 112.8 455.851 112.8 A 27.49 27.49 0 0 1 448.078 111.756 A 20.901 20.901 0 0 1 438.076 105.375 Q 432.612 99.158 431.723 88.471 A 52.166 52.166 0 0 1 431.551 84.15 Z" id="6" vector-effect="non-scaling-stroke"/>
		<path d="M 534.601 110.7 L 534.601 6.3 Q 539.788 5.707 547.466 5.261 A 409.679 409.679 0 0 1 547.651 5.25 Q 554.354 4.863 562.719 4.809 A 428.019 428.019 0 0 1 565.501 4.8 A 81.468 81.468 0 0 1 576.637 5.51 Q 582.286 6.292 586.889 7.933 A 33.906 33.906 0 0 1 595.051 12.075 A 25.066 25.066 0 0 1 601.895 19.061 Q 605.401 24.554 605.401 31.8 A 25.578 25.578 0 0 1 604.461 38.88 A 20.696 20.696 0 0 1 600.976 45.825 A 27.43 27.43 0 0 1 595.152 51.389 Q 592.088 53.592 588.151 55.35 A 45.325 45.325 0 0 1 595.105 58.44 Q 598.934 60.57 601.721 63.285 A 25.305 25.305 0 0 1 603.601 65.325 A 22.879 22.879 0 0 1 608.651 77.479 A 30.17 30.17 0 0 1 608.851 81 Q 608.851 94.972 598.035 103.392 A 34.466 34.466 0 0 1 597.601 103.725 A 37.021 37.021 0 0 1 586.536 109.29 Q 581.436 110.927 575.228 111.643 A 90.291 90.291 0 0 1 564.901 112.2 A 332.754 332.754 0 0 1 552.78 111.987 A 281.348 281.348 0 0 1 547.576 111.75 Q 539.401 111.3 534.601 110.7 Z M 565.951 62.4 L 548.851 62.4 L 548.851 99.45 A 141.274 141.274 0 0 0 559.257 100.223 A 172.742 172.742 0 0 0 565.951 100.35 A 60.344 60.344 0 0 0 573.723 99.881 Q 577.684 99.366 580.953 98.283 A 25.906 25.906 0 0 0 586.801 95.55 A 16.316 16.316 0 0 0 591.928 90.517 Q 593.93 87.336 594.243 83.175 A 21.004 21.004 0 0 0 594.301 81.6 A 17.592 17.592 0 0 0 592.993 74.7 Q 591.2 70.448 586.951 67.5 Q 581.51 63.725 572.617 62.744 A 60.931 60.931 0 0 0 565.951 62.4 Z M 548.851 17.1 L 548.851 51.3 L 565.351 51.3 A 45.99 45.99 0 0 0 572.902 50.718 Q 576.874 50.056 580.104 48.64 A 22.892 22.892 0 0 0 584.176 46.35 A 18.285 18.285 0 0 0 588.288 42.424 A 14.337 14.337 0 0 0 591.151 33.6 A 16.197 16.197 0 0 0 590.14 27.751 Q 588.509 23.506 584.251 20.775 A 24.964 24.964 0 0 0 577.521 17.829 Q 572.288 16.35 565.351 16.35 A 189.37 189.37 0 0 0 560.626 16.406 A 140.539 140.539 0 0 0 556.351 16.575 Q 552.301 16.8 548.851 17.1 Z" id="8" vector-effect="non-scaling-stroke"/>
		<path d="M 681.001 39.3 L 681.001 33 L 693.301 33 L 693.301 92.1 A 18.225 18.225 0 0 0 693.453 94.554 Q 693.838 97.376 695.195 98.806 A 4.448 4.448 0 0 0 696.076 99.525 Q 698.851 101.25 702.151 101.25 L 699.301 111.75 Q 685.256 111.75 682.056 100.62 A 20.385 20.385 0 0 1 681.901 100.05 A 31.961 31.961 0 0 1 677.237 105.189 A 42.747 42.747 0 0 1 672.526 108.825 A 22.392 22.392 0 0 1 665.096 111.98 Q 661.606 112.8 657.451 112.8 Q 647.701 112.8 639.751 107.85 A 34.42 34.42 0 0 1 628.631 96.56 A 41.884 41.884 0 0 1 627.076 93.825 Q 622.351 84.75 622.351 72.45 A 49.713 49.713 0 0 1 623.846 60.047 A 41.952 41.952 0 0 1 627.076 51.45 Q 631.801 42.15 640.126 36.675 A 33.446 33.446 0 0 1 656.918 31.265 A 41.082 41.082 0 0 1 659.251 31.2 A 33.876 33.876 0 0 1 666.441 31.936 A 28.055 28.055 0 0 1 671.476 33.525 A 39.003 39.003 0 0 1 677.906 36.966 A 33.154 33.154 0 0 1 681.001 39.3 Z M 679.801 91.05 L 679.801 49.2 Q 675.751 46.35 670.876 44.625 Q 666.001 42.9 660.601 42.9 A 23.887 23.887 0 0 0 653.144 44.031 A 21.035 21.035 0 0 0 647.926 46.575 A 24.451 24.451 0 0 0 640.397 54.711 A 29.944 29.944 0 0 0 639.301 56.775 A 30.995 30.995 0 0 0 636.671 65.29 A 41.517 41.517 0 0 0 636.151 72 Q 636.151 80.4 639.301 86.925 A 26.403 26.403 0 0 0 643.959 93.744 A 23.545 23.545 0 0 0 648.001 97.125 Q 653.551 100.8 660.451 100.8 Q 666.151 100.8 671.251 98.025 A 29.176 29.176 0 0 0 678.331 92.697 A 27.106 27.106 0 0 0 679.801 91.05 Z" id="9" vector-effect="non-scaling-stroke"/>
		<path d="M 733.651 111 L 720.151 111 L 720.151 33 L 733.651 33 L 733.651 111 Z M 720.357 16.932 A 8.959 8.959 0 0 0 726.901 19.65 Q 731.251 19.65 733.801 17.025 A 8.665 8.665 0 0 0 735.938 13.325 A 11.266 11.266 0 0 0 736.351 10.2 A 10.887 10.887 0 0 0 736.35 10.078 A 9.091 9.091 0 0 0 733.576 3.525 Q 730.801 0.75 726.901 0.75 A 12.396 12.396 0 0 0 724.417 0.987 A 8.492 8.492 0 0 0 720.001 3.3 Q 717.451 5.85 717.451 10.2 A 8.987 8.987 0 0 0 718.189 13.828 A 9.965 9.965 0 0 0 720.226 16.8 A 11.203 11.203 0 0 0 720.357 16.932 Z" id="10" vector-effect="non-scaling-stroke"/>
		<path d="M 809.251 40.8 L 809.251 0 L 822.751 0 L 822.751 92.1 A 18.225 18.225 0 0 0 822.903 94.554 Q 823.288 97.376 824.645 98.806 A 4.448 4.448 0 0 0 825.526 99.525 Q 828.301 101.25 831.601 101.25 L 828.751 111.75 A 26.78 26.78 0 0 1 822.364 111.049 Q 813.72 108.922 811.351 100.35 A 29.229 29.229 0 0 1 807.106 105.077 Q 804.905 107.071 802.126 108.9 Q 796.531 112.583 788.193 112.788 A 40.375 40.375 0 0 1 787.201 112.8 Q 777.601 112.8 769.651 107.85 Q 761.701 102.9 757.051 93.825 A 41.299 41.299 0 0 1 753.168 81.911 A 55.831 55.831 0 0 1 752.401 72.45 A 50.91 50.91 0 0 1 753.734 60.579 A 41.944 41.944 0 0 1 757.126 51.3 A 40.936 40.936 0 0 1 764.054 41.414 A 36.279 36.279 0 0 1 769.726 36.6 Q 777.601 31.2 787.051 31.2 A 32.463 32.463 0 0 1 793.46 31.803 A 23.913 23.913 0 0 1 800.476 34.35 A 51.515 51.515 0 0 1 804.347 36.734 Q 806.181 37.986 807.638 39.261 A 24.885 24.885 0 0 1 809.251 40.8 Z M 809.251 91.35 L 809.251 52.65 Q 806.688 49.412 802.305 46.599 A 42.21 42.21 0 0 0 801.301 45.975 Q 796.201 42.9 790.051 42.9 A 22.419 22.419 0 0 0 782.617 44.1 A 20.077 20.077 0 0 0 777.451 46.8 Q 772.051 50.7 769.126 57.225 A 33.285 33.285 0 0 0 766.516 66.772 A 42.17 42.17 0 0 0 766.201 72 A 37.135 37.135 0 0 0 767.09 80.279 A 30.491 30.491 0 0 0 769.351 86.775 A 27.307 27.307 0 0 0 773.911 93.545 A 24.183 24.183 0 0 0 777.976 97.05 A 21.145 21.145 0 0 0 790.201 100.8 Q 795.751 100.8 800.776 98.175 Q 805.801 95.55 809.251 91.35 Z" id="11" vector-effect="non-scaling-stroke"/>
		<path d="M 835.351 142.8 L 838.351 131.55 A 14.861 14.861 0 0 0 840.098 132.411 Q 841.332 132.928 842.851 133.35 A 20.27 20.27 0 0 0 846.269 133.976 A 26.037 26.037 0 0 0 848.851 134.1 Q 855.151 134.1 860.101 130.05 A 18.005 18.005 0 0 0 863 126.958 Q 865.623 123.492 868.112 117.713 A 87.87 87.87 0 0 0 869.551 114.15 L 873.001 105.15 L 865.801 105.15 L 835.351 36.6 L 847.351 31.2 L 876.451 96.15 L 899.101 31.8 L 911.551 36.6 L 882.901 114.9 Q 879.844 123.332 876.418 129.171 A 46.29 46.29 0 0 1 873.451 133.65 Q 868.351 140.4 862.201 143.1 A 32.177 32.177 0 0 1 852.216 145.631 A 39.058 39.058 0 0 1 848.551 145.8 Q 844.051 145.8 840.676 144.9 A 30.49 30.49 0 0 1 838.524 144.246 Q 837.518 143.896 836.685 143.51 A 12.921 12.921 0 0 1 835.351 142.8 Z" id="12" vector-effect="non-scaling-stroke"/>
		<path d="M 975.451 39.3 L 975.451 33 L 987.751 33 L 987.751 92.1 A 18.225 18.225 0 0 0 987.903 94.554 Q 988.288 97.376 989.645 98.806 A 4.448 4.448 0 0 0 990.526 99.525 Q 993.301 101.25 996.601 101.25 L 993.751 111.75 Q 979.706 111.75 976.506 100.62 A 20.385 20.385 0 0 1 976.351 100.05 A 31.961 31.961 0 0 1 971.687 105.189 A 42.747 42.747 0 0 1 966.976 108.825 A 22.392 22.392 0 0 1 959.546 111.98 Q 956.056 112.8 951.901 112.8 Q 942.151 112.8 934.201 107.85 A 34.42 34.42 0 0 1 923.081 96.56 A 41.884 41.884 0 0 1 921.526 93.825 Q 916.801 84.75 916.801 72.45 A 49.713 49.713 0 0 1 918.296 60.047 A 41.952 41.952 0 0 1 921.526 51.45 Q 926.251 42.15 934.576 36.675 A 33.446 33.446 0 0 1 951.368 31.265 A 41.082 41.082 0 0 1 953.701 31.2 A 33.876 33.876 0 0 1 960.891 31.936 A 28.055 28.055 0 0 1 965.926 33.525 A 39.003 39.003 0 0 1 972.356 36.966 A 33.154 33.154 0 0 1 975.451 39.3 Z M 974.251 91.05 L 974.251 49.2 Q 970.201 46.35 965.326 44.625 Q 960.451 42.9 955.051 42.9 A 23.887 23.887 0 0 0 947.594 44.031 A 21.035 21.035 0 0 0 942.376 46.575 A 24.451 24.451 0 0 0 934.847 54.711 A 29.944 29.944 0 0 0 933.751 56.775 A 30.995 30.995 0 0 0 931.121 65.29 A 41.517 41.517 0 0 0 930.601 72 Q 930.601 80.4 933.751 86.925 A 26.403 26.403 0 0 0 938.409 93.744 A 23.545 23.545 0 0 0 942.451 97.125 Q 948.001 100.8 954.901 100.8 Q 960.601 100.8 965.701 98.025 A 29.176 29.176 0 0 0 972.781 92.697 A 27.106 27.106 0 0 0 974.251 91.05 Z" id="13" vector-effect="non-scaling-stroke"/>
	</g>
</svg>